<?xml version="1.0" encoding="UTF-8"?>
<svg id="Layer_2" xmlns="http://www.w3.org/2000/svg" xmlns:xlink="http://www.w3.org/1999/xlink" viewBox="0 0 1920 1080">
  <defs>
    <style>
      .cls-1 {
        fill: #fff;
      }

      .cls-2 {
        fill: none;
      }

      .cls-3 {
        clip-path: url(#clippath);
      }
    </style>
    <clipPath id="clippath">
      <path class="cls-2" d="M0,0v1080h1920V0H0ZM1837.13,483.36h-243.58V138.04h243.58v345.31Z"/>
    </clipPath>
  </defs>
  <g id="Layer_1-2" data-name="Layer_1">
    <g class="cls-3">
      <g>
        <g>
          <g>
            <polygon points="1819.73 716.05 1819.73 651.79 1800.51 643.78 1800.51 599.47 1861.53 567.95 1819.83 549.27 1820.44 491.42 1800.51 491.42 1800.51 186.03 1585.79 186.03 1585.79 175.08 1325.09 175.08 1325.09 186.03 1317.18 186.03 1317.18 175.08 1050.48 175.08 1057.81 186.03 1048.52 186.03 1041 175.63 959.66 175.63 960.01 186.03 902.47 186.03 902.22 175.08 814.02 175.08 814.02 186.03 797.65 186.03 797.65 175.08 563.35 175.08 555.74 175.08 340.72 175.08 323.21 175.08 70.59 175.08 101.75 222.31 101.75 872.04 157.07 841.61 375.81 841.61 375.81 869.88 452 841.61 601 841.61 626.16 859 626.05 859.76 626.45 859.19 676.59 893.83 770.24 841.61 814.02 841.61 814.02 861.27 902.54 862.36 902.54 841.61 960.46 841.61 960.56 861.25 1035.63 862.3 1050.38 841.61 1062.44 841.61 1049.89 862.28 1346.13 861.21 1343.75 841.61 1352.21 841.61 1355.41 861.28 1456.69 861.28 1449.14 841.61 1466.31 841.61 1459.09 861.28 1605.12 861.28 1598.1 841.61 1671.53 841.61 1701.79 865.86 1731.32 841.61 1800.51 841.61 1800.51 784.8 1848.28 745.57 1819.73 716.05"/>
            <path d="M1593.44,167.43v10.95h214.72v305.39h20l-.63,60.56,51.61,23.13-70.98,36.67v34.55l19.21,8.01v66.27l32.18,33.27-51.39,42.2-38.81,26.49-35.3,34.36-32.21,26.45-33.01-26.45h-59.89l7.02,19.66-269.81-.06-306.6,1.1-.02.03-1.77-.03h-1.49s.02-.02.02-.02h-.76s-82.58-1.16-82.58-1.16l-.1-19.53h-42.65v20.84s-103.83-1.27-103.83-1.27v-19.56h-34.13l-96.07,53.57c-25.85-17.86-51.7-35.71-77.55-53.57h-145.23l-85.22,31.62v-31.62h-209.13l-64.93,35.72V224.61l-37.74-57.18h853.34l.25,10.95h42.14l-.36-10.4"/>
          </g>
          <path d="M1390.83,232.46h59.58v229.22l34.59-26.35-7.27-3.02v-199.85h57.94v119.21l14.09-6.91,7.02,3.96c2.04,1.15,4.11,2.24,6.2,3.3v-146.32h-199.47v17.56l27.32,14.48v-5.27Z"/>
          <path d="M414.23,555.37h27.32v-33.12h-36.59l9.27,14.04v19.07Z"/>
          <path d="M394.07,393.87l72.7,42.12,79.41-44.01-5.64-6.03v-106.49c-1.17,15.53-8.86,34.56-23.13,57.42-12.59,20.17-27.18,38.25-34.31,46.75v36.69l-15.33-18.4-15.33,18.4v-36.69c-7.13-8.49-21.71-26.58-34.31-46.75-24.03-38.47-29.4-66.09-16.41-84.44,5.67-8,20.62-21.19,40.56-19.86,9.38.63,18.25,4.28,25.49,10.13,7.24-5.85,16.11-9.5,25.49-10.13,20-1.35,34.9,11.85,40.56,19.86,3.89,5.49,6.13,11.82,6.72,19.02v-65.77h-146.47v188.18Z"/>
          <path class="cls-1" d="M786.34,186.03v44.74l15.91,12.78-67.03,53.77v-71.82h-82.94v144.38l40.99,24.82,41.95-25.57v-31.58l51.12-28.58v66.93c2.57,2.25,5.55,4.2,8.92,5.83,3.38,1.63,6.19,3.45,8.44,5.45l-109.46,62.04-105.61-66.18,12.54-19.93v-149.27l-15.43-27.82h200.6Z"/>
          <path class="cls-1" d="M1574.48,186.03v186.5c-9.68-5.46-19.35-9.38-29.03-14.84-9.63,4.73-19.27,9.45-28.9,14.18v-128.46h-27.33v174.32l22.41,9.29-80.34,61.21v-244.82h-28.96v15.41l-57.93-30.72v-42.07h230.08Z"/>
          <path class="cls-1" d="M178.99,694.96l166.14-38.67-15.85-23.49v-130.2h-150.29v-101.78l148.84-43.34,1.45-171.44H103.03l18.04,27.33v628.44l76.51-42.1-18.58-13.22v-91.53ZM178.99,243.41h92.36v72.69l-92.36,19.68v-92.36ZM271.35,619.09l-92.36,17.62v-82.72h92.36v65.1Z"/>
          <path class="cls-1" d="M1494.6,670.37l70.14,37.71v70.04c7.55,21.16,15.11,42.33,22.66,63.49h-102.38c7.26-19.79,14.53-39.59,21.79-59.38,0-15.25,0-30.49,0-45.74-20.22-10.78-40.44-21.55-60.66-32.33l-30.6,22.04v55.84c7.62,19.86,15.25,39.71,22.87,59.57h-65.99c-4.94-30.42-9.88-60.83-14.82-91.25v-218.6c-3.11-7.54-6.22-15.07-9.33-22.61.03-2.29-.03-4.57,0-6.86,68.29.03,130.45.06,198.74.09l17.72,24.49v98.78M1506.81,552.82h-91.27l.16,108.24,91.11-63.67v-44.57Z"/>
          <path class="cls-1" d="M1660.31,682.13v55.84l45.64,34.78,45.63-35.27v-46.53l-149.2-64.16v-98.94l-18.04-25.47h224.62l-.55,52.41,21.86,9.8-78.7,40.65v-52.41h-91.27v43.1l148.11,61.71v60.25l21.32,22.04-124.06,101.88-103.29-82.78.55-49.96"/>
          <g>
            <path class="cls-1" d="M750.03,545.52c13.76,42.18,27.51,84.37,41.27,126.55,6.11,8.56,12.23,17.12,18.34,25.68-23.54-4.28-47.08-8.56-70.61-12.84-2.14-21.7-4.28-43.41-6.42-65.11-42.8,5.2-85.59,10.39-128.39,15.59-11.62,22.32-23.23,44.63-34.85,66.95,30.57,16.2,61.14,32.4,91.71,48.6-2.14,14.37-4.28,28.73-6.42,43.1,19.87-28.12,39.74-56.25,59.61-84.37,13.76,1.83,27.51,3.67,41.27,5.5,15.9-.31,31.79-.61,47.69-.92-7.64,8.25-15.28,16.51-22.93,24.76,1.96,16.82,3.91,33.63,5.87,50.45,3.36,2.17,6.5,4.78,10.14,6.52,3.84,1.83,7.03,3.86,9.6,6.1l-124.44,69.39c-37.36-25.81-74.72-51.62-112.09-77.42-24.15-8.86-48.3-17.73-72.45-26.59,8.86-5.81,17.73-11.62,26.59-17.42-11-32.71-22.01-65.42-33.01-98.12,9.78-22.32,19.56-44.63,29.35-66.95-.92-12.53-1.83-25.07-2.75-37.6,13.14-32.71,26.29-65.42,39.43-98.12,21.58,16.17,47.52,33.34,77.95,49.52,42.56,22.63,82.34,37.19,115.55,46.77Z"/>
            <polyline class="cls-1" points="617.97 670.24 659.24 676.47 649.12 692.04 617.97 692.04"/>
            <path class="cls-1" d="M709.68,661.99c-9.95,4.26-19.91,8.53-29.86,12.79,2.92,3.99,5.85,7.98,8.77,11.97,9.78-2.75,19.56-5.5,29.35-8.25"/>
          </g>
          <g>
            <polygon class="cls-1" points="395.12 566.32 453.05 566.32 453.05 502.59 372.71 502.59 395.12 536.54 395.12 566.32"/>
            <polygon class="cls-1" points="453.05 595.35 395.12 595.35 395.12 843.52 476 813.51 453.05 786.45 453.05 595.35"/>
          </g>
          <path class="cls-1" d="M552.04,375.55v-189.52h-191.06l13.98,15.95v196.36l87.84,50.89,104.15-57.73-14.91-15.95ZM463.99,373.62v.06s-.02-.02-.02-.03c0,0-.02.02-.02.03,0-.02,0-.04,0-.06-5-5.73-74.84-86.59-53.53-116.69,3.85-5.45,14.31-14.28,27.05-13.43,11.57.77,21.89,8.42,26.51,19.69,4.62-11.27,14.94-18.91,26.51-19.69,12.74-.85,23.19,7.98,27.05,13.43,21.3,30.1-48.54,110.96-53.53,116.69Z"/>
        </g>
        <g>
          <path class="cls-1" d="M891.24,490.5v-72.64c14.36-7.37,28.72-14.75,43.07-22.12,27.51,33.78,55.02,61.71,82.53,94.77h28.74c5.66-8.14,11.31-16.28,16.97-24.41v-56.92c-8.39,11.55-16.78,23.1-25.17,34.65-24.69-22.9-48.21-45.8-72.9-68.7,24.19-21.26,48.37-42.52,72.56-63.78.06-7.51.1-15.03.13-22.57.1-22.2.1-44.28,0-66.23,8.72.08,17.45.15,26.17.23-8.72-12.06-17.45-24.13-26.17-36.19h-57.68c.28,8.2.56,16.4.84,24.59v77.61c-21.85,17.42-43.69,34.84-65.54,52.27-6.91-9.46-13.81-18.92-20.71-28.38-.94-42.21-1.89-84.42-2.83-126.63h-57.93c0,7.65,0,15.3,0,22.95v281.52h57.92Z"/>
          <path class="cls-1" d="M1037.18,705.03l-72.69-33.95c25.01-33.65,47.89-68.05,72.9-101.71,8.39,11.4,16.78,22.79,25.17,34.19v-64.46c-8.32-11.97-16.64-23.94-24.95-35.91h-19.94c-27.55,36.14-55.11,76.12-82.66,111.8-14.59-6.12-29.18-12.25-43.77-18.37v-93.43s-57.91,0-57.91,0v338.6c19.3.24,38.61.48,57.91.72,0-39.27.01-78.54.02-117.81l25.14-19.19,62.85,29.52.54,106.76c17.35.24,34.69.48,52.04.72,10.35-14.51,20.69-29.02,31.04-43.53-8.56-5.41-17.12-10.82-25.69-16.23v-77.73Z"/>
        </g>
        <g>
          <path class="cls-1" d="M1107.65,464.99c-6.76,8.5-13.52,17.01-20.27,25.51h228.57c.18-18.72.35-37.44.53-56.17-21.97-8.3-43.93-16.59-65.89-24.89v31.29l-25.04,25.51-62.6-.49v-77.82h57.97l41.78-51.33h-99.75v-99.24h87.64v67.47l78.77-55.73-23.48-15.15v-47.91h-222.74c8.17,12.22,16.34,24.44,24.52,36.66v242.29Z"/>
          <path class="cls-1" d="M1257.54,727.42c.31,21.81.63,43.63.94,65.44-30.92-.33-61.84-.66-92.75-.99v-86.09h60.73l43.77-51.65h-104.5v-115.01c20.04,0,40.07,0,60.11,0,8.39,8.11,16.77,15.93,25.16,24.04v35.86c21.39-8.93,42.78-17.86,64.17-26.79.22-23.01.44-46.01.65-69.02h-229.95l21.92,35.26v260.15c-8.88,14.64-17.76,29.27-26.65,43.91,83.9-.3,167.81-.61,251.71-.91-5.8-47.58-11.59-95.15-17.39-142.73l-57.93,28.53Z"/>
        </g>
      </g>
    </g>
  </g>
</svg>